<svg xmlns="http://www.w3.org/2000/svg" width="680" height="720" viewBox="0 0 680 720" font-family="Segoe UI, Helvetica, Arial, sans-serif" role="img" aria-label="Mapa MRP II de ciclo cerrado de Folvy a 2026-06-03">
  <rect x="0" y="0" width="680" height="720" rx="14" fill="#faf9f5" stroke="#e2e0d8" stroke-width="1"/>

  <text x="40" y="30" font-size="16" font-weight="600" fill="#2c2c2a">MRP II de ciclo cerrado — el destino de Folvy</text>
  <text x="40" y="48" font-size="12" fill="#888780">verde = ya existe · ámbar = a medias · gris = por construir · 2026-06-03</text>

  <!-- Planificación -->
  <rect x="40" y="62" width="600" height="152" rx="14" fill="#e1f5ee" stroke="#1d9e75" stroke-width="0.7"/>
  <text x="58" y="86" font-size="13" font-weight="600" fill="#085041">Planificación (el cerebro — nadie en hostelería lo tiene)</text>

  <rect x="58" y="100" width="138" height="48" rx="8" fill="#eaf3de" stroke="#639922"/>
  <text x="127" y="120" font-size="12.5" font-weight="500" fill="#27500a" text-anchor="middle">1 · Previsión</text>
  <text x="127" y="137" font-size="11" fill="#3b6d11" text-anchor="middle">~12K ventas</text>
  <rect x="206" y="100" width="138" height="48" rx="8" fill="#f1efe8" stroke="#888780"/>
  <text x="275" y="120" font-size="12.5" font-weight="500" fill="#2c2c2a" text-anchor="middle">2 · Plan maestro</text>
  <text x="275" y="137" font-size="11" fill="#5f5e5a" text-anchor="middle">por construir</text>
  <rect x="354" y="100" width="138" height="48" rx="8" fill="#eaf3de" stroke="#639922"/>
  <text x="423" y="120" font-size="12.5" font-weight="500" fill="#27500a" text-anchor="middle">3 · Necesidades</text>
  <text x="423" y="137" font-size="11" fill="#3b6d11" text-anchor="middle">escandallo×ventas</text>
  <rect x="502" y="100" width="120" height="48" rx="8" fill="#f1efe8" stroke="#888780"/>
  <text x="562" y="120" font-size="12.5" font-weight="500" fill="#2c2c2a" text-anchor="middle">4 · Balance</text>
  <text x="562" y="137" font-size="11" fill="#5f5e5a" text-anchor="middle">vs stock</text>
  <rect x="58" y="154" width="138" height="44" rx="8" fill="#f1efe8" stroke="#888780"/>
  <text x="127" y="180" font-size="12.5" font-weight="500" fill="#2c2c2a" text-anchor="middle">5 · Capacidad</text>
  <text x="216" y="180" font-size="11" fill="#5f5e5a">PAR levels + punto de reorden + stock seguridad + lead time</text>

  <!-- Ejecución de compra -->
  <rect x="40" y="230" width="600" height="116" rx="14" fill="#faeeda" stroke="#ba7517" stroke-width="0.7"/>
  <text x="58" y="254" font-size="13" font-weight="600" fill="#633806">Ejecución de compra (ciclo administrativo estándar)</text>

  <rect x="58" y="268" width="138" height="48" rx="8" fill="#f1efe8" stroke="#888780"/>
  <text x="127" y="288" font-size="12.5" font-weight="500" fill="#2c2c2a" text-anchor="middle">6 · Órdenes</text>
  <text x="127" y="305" font-size="11" fill="#5f5e5a" text-anchor="middle">auto/manual</text>
  <rect x="206" y="268" width="138" height="48" rx="8" fill="#f1efe8" stroke="#888780"/>
  <text x="275" y="288" font-size="12.5" font-weight="500" fill="#2c2c2a" text-anchor="middle">7 · Aprobación</text>
  <text x="275" y="305" font-size="11" fill="#5f5e5a" text-anchor="middle">+ envío</text>
  <rect x="354" y="268" width="138" height="48" rx="8" fill="#faeeda" stroke="#ba7517"/>
  <text x="423" y="288" font-size="12.5" font-weight="500" fill="#633806" text-anchor="middle">8 · Recepción</text>
  <text x="423" y="305" font-size="11" fill="#854f0b" text-anchor="middle">albarán + OCR</text>
  <rect x="502" y="268" width="120" height="48" rx="8" fill="#faeeda" stroke="#ba7517"/>
  <text x="562" y="288" font-size="12.5" font-weight="500" fill="#633806" text-anchor="middle">9 · Factura</text>
  <text x="562" y="305" font-size="11" fill="#854f0b" text-anchor="middle">three-way</text>

  <!-- Inventario y cierre -->
  <rect x="40" y="362" width="600" height="150" rx="14" fill="#e6f1fb" stroke="#185fa5" stroke-width="0.7"/>
  <text x="58" y="386" font-size="13" font-weight="600" fill="#042c53">Inventario, coste y cierre (el bucle que se cierra)</text>

  <rect x="58" y="400" width="138" height="48" rx="8" fill="#f1efe8" stroke="#888780"/>
  <text x="127" y="420" font-size="12.5" font-weight="500" fill="#2c2c2a" text-anchor="middle">10 · Inventario</text>
  <text x="127" y="437" font-size="11" fill="#5f5e5a" text-anchor="middle">perpetuo · FEFO</text>
  <rect x="206" y="400" width="138" height="48" rx="8" fill="#faeeda" stroke="#ba7517"/>
  <text x="275" y="420" font-size="12.5" font-weight="500" fill="#633806" text-anchor="middle">11 · Trazabilidad</text>
  <text x="275" y="437" font-size="11" fill="#854f0b" text-anchor="middle">lote · APPCC</text>
  <rect x="354" y="400" width="138" height="48" rx="8" fill="#eaf3de" stroke="#639922"/>
  <text x="423" y="420" font-size="12.5" font-weight="500" fill="#27500a" text-anchor="middle">12 · AvT</text>
  <text x="423" y="437" font-size="11" fill="#3b6d11" text-anchor="middle">motor coste listo</text>
  <rect x="502" y="400" width="120" height="48" rx="8" fill="#f1efe8" stroke="#888780"/>
  <text x="562" y="420" font-size="12.5" font-weight="500" fill="#2c2c2a" text-anchor="middle">13 · Cierre</text>
  <text x="562" y="437" font-size="11" fill="#5f5e5a" text-anchor="middle">márgenes</text>
  <text x="58" y="472" font-size="11" fill="#5f5e5a">Inventario = entradas (recepción) − salidas (consumo por ventas×escandallo). Conteos, mermas, caducidad, lotes.</text>
  <text x="58" y="492" font-size="11" fill="#5f5e5a">AvT = teórico (escandallo×ventas) vs real (compras ± variación de stock). La métrica reina del coste.</text>

  <!-- Flechas entre zonas -->
  <line x1="340" y1="214" x2="340" y2="228" stroke="#73726c" stroke-width="1.2"/>
  <polygon points="340,232 336,224 344,224" fill="#73726c"/>
  <line x1="340" y1="346" x2="340" y2="360" stroke="#73726c" stroke-width="1.2"/>
  <polygon points="340,364 336,356 344,356" fill="#73726c"/>
  <!-- Realimentación -->
  <path d="M40 436 L24 436 L24 124 L40 124" fill="none" stroke="#888780" stroke-width="1" stroke-dasharray="4 4"/>
  <polygon points="40,124 32,120 32,128" fill="#888780"/>
  <text x="18" y="285" font-size="10.5" fill="#888780" text-anchor="middle" transform="rotate(-90 18 285)">el cierre realimenta la previsión</text>

  <!-- Insumos -->
  <rect x="40" y="528" width="600" height="62" rx="12" fill="#f1efe8" stroke="#888780" stroke-width="0.7"/>
  <text x="58" y="552" font-size="13" font-weight="600" fill="#2c2c2a">Insumos que Folvy YA tiene</text>
  <text x="58" y="572" font-size="11" fill="#5f5e5a">escandallos (BOM) · ~12K ventas (previsión) · ingredientes/proveedores/formatos/coste · familias AECOC · APPCC · motor de coste</text>

  <!-- Método -->
  <rect x="40" y="604" width="600" height="86" rx="12" fill="#faece7" stroke="#d85a30" stroke-width="0.7"/>
  <text x="58" y="628" font-size="13" font-weight="600" fill="#712b13">Método: copiar de fuera de la hostelería</text>
  <text x="58" y="650" font-size="11" fill="#993c1d">SAP/Sage/Acumatica dan el motor: reorden, stock seguridad, lead time, lote económico, BOM, three-way match.</text>
  <text x="58" y="670" font-size="11" fill="#993c1d">Perecedero (NetSuite/RELEX): PAR levels, FEFO, lotes con caducidad, auto-86, transferencias entre locales.</text>
  <text x="58" y="686" font-size="11" fill="#993c1d">Traducir el motor industrial a lenguaje de cocina = manejable. Ahí está el hueco.</text>
</svg>
