<svg xmlns="http://www.w3.org/2000/svg" width="1040" height="690" viewBox="0 0 1040 690" font-family="Segoe UI, Helvetica, Arial, sans-serif" role="img" aria-label="Folvy mapa global: estado por zona a 2026-06-03">
  <defs>
    <marker id="ar" viewBox="0 0 10 10" refX="8" refY="5" markerWidth="6" markerHeight="6" orient="auto-start-reverse">
      <path d="M2 1L8 5L2 9" fill="none" stroke="#73726c" stroke-width="1.5" stroke-linecap="round" stroke-linejoin="round"/>
    </marker>
  </defs>

  <rect x="0" y="0" width="1040" height="690" rx="16" fill="#faf9f5" stroke="#e2e0d8" stroke-width="1"/>

  <text x="30" y="34" font-size="20" font-weight="600" fill="#2c2c2a">Folvy — mapa global</text>
  <text x="30" y="52" font-size="12" fill="#888780">estado por zona · 2026-06-03 (coste real + familias) · se regenera al cerrar cada avance</text>

  <rect x="556" y="23" width="12" height="12" rx="3" fill="#e1f5ee" stroke="#1d9e75"/>
  <text x="573" y="33" font-size="12" fill="#444441">construido</text>
  <rect x="650" y="23" width="12" height="12" rx="3" fill="#faeeda" stroke="#ba7517"/>
  <text x="667" y="33" font-size="12" fill="#444441">a medias</text>
  <rect x="735" y="23" width="12" height="12" rx="3" fill="#faece7" stroke="#d85a30"/>
  <text x="752" y="33" font-size="12" fill="#444441">vacío de datos</text>
  <rect x="847" y="23" width="12" height="12" rx="3" fill="#f1efe8" stroke="#888780"/>
  <text x="864" y="33" font-size="12" fill="#444441">pendiente / bloqueado</text>

  <rect x="20" y="60" width="1000" height="102" rx="12" fill="none" stroke="#d3d1c7" stroke-width="1" stroke-dasharray="4 4"/>
  <text x="36" y="78" font-size="13" font-weight="600" fill="#5f5e5a">Entrada de datos</text>

  <rect x="40" y="84" width="200" height="32" rx="8" fill="#e6f1fb" stroke="#185fa5"/>
  <text x="140" y="104" font-size="13" font-weight="500" fill="#042c53" text-anchor="middle">Plataformas delivery</text>
  <rect x="40" y="122" width="200" height="32" rx="8" fill="#e1f5ee" stroke="#1d9e75"/>
  <text x="140" y="142" font-size="13" font-weight="500" fill="#085041" text-anchor="middle">Last.app (POS)</text>

  <rect x="470" y="100" width="200" height="46" rx="8" fill="#faeeda" stroke="#ba7517"/>
  <text x="570" y="119" font-size="13" font-weight="500" fill="#633806" text-anchor="middle">Folvy Connect</text>
  <text x="570" y="135" font-size="11" fill="#854f0b" text-anchor="middle">Vault OK · Glovo/Catcher pend.</text>

  <rect x="800" y="100" width="200" height="46" rx="8" fill="#e1f5ee" stroke="#1d9e75"/>
  <text x="900" y="119" font-size="13" font-weight="500" fill="#085041" text-anchor="middle">Ingesta de ventas</text>
  <text x="900" y="135" font-size="11" fill="#0f6e56" text-anchor="middle">webhook en vivo + backfill</text>

  <line x1="240" y1="102" x2="468" y2="116" stroke="#73726c" stroke-width="1.2" marker-end="url(#ar)"/>
  <line x1="240" y1="138" x2="468" y2="128" stroke="#73726c" stroke-width="1.2" marker-end="url(#ar)"/>
  <line x1="670" y1="123" x2="798" y2="123" stroke="#73726c" stroke-width="1.2" marker-end="url(#ar)"/>

  <rect x="20" y="174" width="1000" height="262" rx="12" fill="none" stroke="#d3d1c7" stroke-width="1" stroke-dasharray="4 4"/>
  <text x="36" y="194" font-size="13" font-weight="600" fill="#5f5e5a">Kitchen · torre del coste → margen</text>

  <rect x="36" y="208" width="126" height="58" rx="8" fill="#e1f5ee" stroke="#1d9e75"/>
  <text x="99" y="232" font-size="12.5" font-weight="500" fill="#085041" text-anchor="middle">Proveedores</text>
  <text x="99" y="249" font-size="11" fill="#0f6e56" text-anchor="middle">validado · pocos datos</text>

  <rect x="176" y="208" width="126" height="58" rx="8" fill="#e1f5ee" stroke="#1d9e75"/>
  <text x="239" y="232" font-size="12.5" font-weight="500" fill="#085041" text-anchor="middle">Coste raw</text>
  <text x="239" y="249" font-size="11" fill="#0f6e56" text-anchor="middle">motor + trigger</text>

  <rect x="316" y="208" width="126" height="58" rx="8" fill="#e1f5ee" stroke="#1d9e75"/>
  <text x="379" y="232" font-size="12.5" font-weight="500" fill="#085041" text-anchor="middle">Escandallo</text>
  <text x="379" y="249" font-size="11" fill="#0f6e56" text-anchor="middle">al céntimo</text>

  <rect x="456" y="208" width="126" height="58" rx="8" fill="#faeeda" stroke="#ba7517"/>
  <text x="519" y="232" font-size="12.5" font-weight="500" fill="#633806" text-anchor="middle">Ventas/consumo</text>
  <text x="519" y="249" font-size="11" fill="#854f0b" text-anchor="middle">algo de dato</text>

  <rect x="596" y="208" width="126" height="58" rx="8" fill="#faece7" stroke="#d85a30"/>
  <text x="659" y="232" font-size="12.5" font-weight="500" fill="#712b13" text-anchor="middle">Compras/invent.</text>
  <text x="659" y="249" font-size="11" fill="#993c1d" text-anchor="middle">vacío</text>

  <rect x="736" y="208" width="126" height="58" rx="8" fill="#f1efe8" stroke="#888780"/>
  <text x="799" y="232" font-size="12.5" font-weight="500" fill="#2c2c2a" text-anchor="middle">AvT / mermas</text>
  <text x="799" y="249" font-size="11" fill="#5f5e5a" text-anchor="middle">pendiente</text>

  <rect x="876" y="208" width="126" height="58" rx="8" fill="#f1efe8" stroke="#888780" stroke-width="1.5"/>
  <text x="939" y="232" font-size="12.5" font-weight="600" fill="#2c2c2a" text-anchor="middle">Margen real</text>
  <text x="939" y="249" font-size="11" fill="#5f5e5a" text-anchor="middle">la cima</text>

  <line x1="162" y1="237" x2="174" y2="237" stroke="#73726c" stroke-width="1.2" marker-end="url(#ar)"/>
  <line x1="302" y1="237" x2="314" y2="237" stroke="#73726c" stroke-width="1.2" marker-end="url(#ar)"/>
  <line x1="442" y1="237" x2="454" y2="237" stroke="#73726c" stroke-width="1.2" marker-end="url(#ar)"/>
  <line x1="582" y1="237" x2="594" y2="237" stroke="#73726c" stroke-width="1.2" marker-end="url(#ar)"/>
  <line x1="722" y1="237" x2="734" y2="237" stroke="#73726c" stroke-width="1.2" marker-end="url(#ar)"/>
  <line x1="862" y1="237" x2="874" y2="237" stroke="#73726c" stroke-width="1.2" marker-end="url(#ar)"/>

  <path d="M900 146 L900 178 L519 178 L519 206" fill="none" stroke="#b5b3a9" stroke-width="1.1" stroke-dasharray="3 3" marker-end="url(#ar)"/>

  <rect x="36" y="274" width="406" height="30" rx="8" fill="#e1f5ee" stroke="#1d9e75"/>
  <text x="46" y="293" font-size="12" font-weight="500" fill="#085041">Familias de ingrediente</text>
  <text x="432" y="293" font-size="10.5" fill="#0f6e56" text-anchor="end">NUEVO · IA 106/56/0 · gestor CRUD · subfamilias AECOC</text>

  <text x="36" y="324" font-size="11.5" fill="#5f5e5a">Validado E2E: MAKRO + formato Saco 5000g/8,50€ → 0,0017€/g, 36 platos recalculados (cascada viva). Pocos raws con precio real aún.</text>
  <text x="36" y="344" font-size="11.5" font-weight="500" fill="#185fa5">SIGUIENTE — PASO 4: IA factura→coste (foto albarán → run_mapping → precio, con revisión humana). Cierra el bucle del coste real.</text>
  <text x="36" y="364" font-size="11.5" fill="#993c1d">Para el MARGEN faltan 2 patas: comisión real (Pantalla Canales, pend.) y transporte real (Catcher/Jelp, pend.).</text>
  <text x="36" y="384" font-size="11.5" fill="#5f5e5a">Descubierto hoy (no estaba en CONTEXTO): cascada VIVA · coste por local · run_mapping (buscador, sirve al paso 4) · helpers IA.</text>
  <text x="36" y="408" font-size="11.5" font-style="italic" fill="#888780">El motor está y validado; falta poblar precios (paso 4) y subir las capas altas (compras/inventario/AvT).</text>

  <rect x="20" y="448" width="1000" height="118" rx="12" fill="none" stroke="#d3d1c7" stroke-width="1" stroke-dasharray="4 4"/>
  <text x="36" y="468" font-size="13" font-weight="600" fill="#5f5e5a">Transversales</text>

  <rect x="40" y="482" width="222" height="64" rx="8" fill="#faeeda" stroke="#ba7517"/>
  <text x="151" y="505" font-size="13" font-weight="500" fill="#633806" text-anchor="middle">Folvy AI</text>
  <text x="151" y="522" font-size="11" fill="#854f0b" text-anchor="middle">extract-recipe · map-products</text>
  <text x="151" y="537" font-size="11" fill="#854f0b" text-anchor="middle">patrón Anthropic reutilizable</text>

  <rect x="282" y="482" width="232" height="64" rx="8" fill="#faeeda" stroke="#ba7517"/>
  <text x="398" y="505" font-size="13" font-weight="500" fill="#633806" text-anchor="middle">Vigilante de ingesta</text>
  <text x="398" y="522" font-size="11" fill="#854f0b" text-anchor="middle">capas 2+3 OK · cuenta corregida</text>
  <text x="398" y="537" font-size="11" fill="#854f0b" text-anchor="middle">capa 1 (horarios) = deuda</text>

  <rect x="534" y="482" width="214" height="64" rx="8" fill="#e1f5ee" stroke="#1d9e75"/>
  <text x="641" y="505" font-size="13" font-weight="500" fill="#085041" text-anchor="middle">Ingeniería de menús</text>
  <text x="641" y="522" font-size="11" fill="#0f6e56" text-anchor="middle">menu_item_economics</text>
  <text x="641" y="537" font-size="11" fill="#0f6e56" text-anchor="middle">comisión a fuente única</text>

  <rect x="768" y="482" width="232" height="64" rx="8" fill="#e1f5ee" stroke="#1d9e75"/>
  <text x="884" y="505" font-size="13" font-weight="500" fill="#085041" text-anchor="middle">Otros módulos</text>
  <text x="884" y="522" font-size="11" fill="#0f6e56" text-anchor="middle">Team · Safety (APPCC)</text>
  <text x="884" y="537" font-size="11" fill="#0f6e56" text-anchor="middle">Sales · Inicio adaptativo</text>

  <rect x="20" y="578" width="1000" height="58" rx="12" fill="#e1f5ee" stroke="#1d9e75" stroke-dasharray="0"/>
  <text x="36" y="602" font-size="13" font-weight="600" fill="#085041">Cimiento</text>
  <text x="520" y="602" font-size="12.5" font-weight="500" fill="#085041" text-anchor="middle">Shell · Auth (PKCE) · Admin · Multi-tenant RLS · Folvy Connect (Vault)</text>
  <text x="520" y="620" font-size="11" fill="#0f6e56" text-anchor="middle">construido y en producción</text>

  <text x="30" y="658" font-size="11.5" font-weight="500" fill="#5f5e5a">Pendientes mayores: </text>
  <text x="156" y="658" font-size="11.5" fill="#888780">Paso 4 (IA factura→coste) · Horarios (cierra capa 1 + propio-vs-plataforma) · Zona Ajustes Kitchen · Pantalla Canales · Catcher/Jelp · Glovo G1 (bloq.)</text>
  <text x="30" y="678" font-size="11.5" fill="#993c1d">Cuentas: Folvy Interno (0000…0001) = banco de pruebas (todos los datos) · Llorente29 (51ad1792) = cliente real VACÍO (se poblará migrando).</text>
</svg>
